<svg xmlns="http://www.w3.org/2000/svg" width="220" height="44" viewBox="0 0 220 44" fill="none">
  <defs>
    <linearGradient id="bumplyGrad" x1="4" y1="4" x2="40" y2="40" gradientUnits="userSpaceOnUse">
      <stop stop-color="#7C8CFF"/>
      <stop offset="1" stop-color="#22D3EE"/>
    </linearGradient>
  </defs>
  <rect x="2" y="2" width="40" height="40" rx="14" fill="#0F1830" stroke="rgba(151,177,255,0.24)"/>
  <path d="M14 11.5h8.9c5.1 0 8.1 2.5 8.1 6.6 0 2.5-1.2 4.4-3.4 5.4 2.8.9 4.3 3 4.3 6.1 0 4.5-3.3 7.3-8.7 7.3H14V11.5Zm8.3 10.2c2.2 0 3.5-1 3.5-2.8s-1.3-2.8-3.5-2.8h-3.4v5.6h3.4Zm.6 10.4c2.4 0 3.8-1.1 3.8-3.1s-1.4-3.1-3.8-3.1h-4v6.2h4Z" fill="url(#bumplyGrad)"/>
  <path d="M61 30.1V13h5.2v16.3c0 2.6 1.2 4 3.5 4 2.2 0 3.4-1.4 3.4-4V13h5.2v17.1c0 5-3.2 8.2-8.6 8.2-5.5 0-8.7-3.2-8.7-8.2Zm22.5 7.8V13h5.2v2.1c1.4-1.6 3.4-2.6 6-2.6 5 0 8.8 3.8 8.8 9.4s-3.8 9.4-8.8 9.4c-2.5 0-4.5-.9-5.9-2.5v9.3h-5.3Zm9.9-11.3c2.7 0 4.7-1.9 4.7-4.8 0-2.8-2-4.7-4.7-4.7s-4.7 1.9-4.7 4.7c0 2.9 2 4.8 4.7 4.8Zm13.5 11.3V13h5.2v2.1c1.4-1.6 3.4-2.6 6-2.6 5 0 8.8 3.8 8.8 9.4s-3.8 9.4-8.8 9.4c-2.5 0-4.5-.9-5.9-2.5v9.3h-5.3Zm9.9-11.3c2.7 0 4.7-1.9 4.7-4.8 0-2.8-2-4.7-4.7-4.7s-4.7 1.9-4.7 4.7c0 2.9 2 4.8 4.7 4.8Zm13.5 4.2V5.9h5.2v24.9h-5.2Zm13.8 7.3 2.4-5.4L140 13h5.5l4.8 12.1 4.8-12.1h5.4l-10.7 25.1h-5.2Z" fill="#F5F7FF"/>
</svg>